<?xml version="1.0" encoding="utf-8"?>
<!-- Generator: Adobe Illustrator 16.0.3, SVG Export Plug-In . SVG Version: 6.00 Build 0)  -->
<!DOCTYPE svg PUBLIC "-//W3C//DTD SVG 1.1//EN" "http://www.w3.org/Graphics/SVG/1.1/DTD/svg11.dtd">
<svg version="1.1" id="Layer_1" xmlns="http://www.w3.org/2000/svg" xmlns:xlink="http://www.w3.org/1999/xlink" x="0px" y="0px"
	 width="94.968px" height="100.455px" viewBox="0 0 94.968 100.455" enable-background="new 0 0 94.968 100.455"
	 xml:space="preserve">
<g>
	<g>
		<polyline points="82.784,10.522 61.86,6.108 67.343,0 88.266,4.413 82.784,10.522 		"/>
		<polygon points="89.423,30.848 82.784,10.522 88.266,4.413 94.906,24.74 		"/>
		<polyline points="82.847,40.009 61.924,35.595 67.406,29.486 88.33,33.899 82.847,40.009 		"/>
		<polygon points="89.487,60.337 82.847,40.009 88.33,33.899 94.969,54.228 		"/>
		<polyline points="82.847,80.127 61.924,75.714 67.406,69.606 88.33,74.019 82.847,80.127 		"/>
		<polygon points="89.487,100.455 82.847,80.127 88.33,74.019 94.969,94.347 		"/>
		<polyline points="20.924,18.165 0,13.752 5.484,7.645 26.407,12.059 20.924,18.165 		"/>
		<polygon points="27.563,38.492 20.924,18.165 26.407,12.059 33.045,32.384 		"/>
		<polyline points="53.41,13.968 32.487,9.555 37.97,3.446 58.893,7.86 53.41,13.968 		"/>
		<polygon points="60.05,34.296 53.41,13.968 58.893,7.86 65.533,28.188 		"/>
	</g>
</g>
</svg>
