<?xml version="1.0" encoding="utf-8"?>
<!-- Generator: Adobe Illustrator 16.0.3, SVG Export Plug-In . SVG Version: 6.00 Build 0)  -->
<!DOCTYPE svg PUBLIC "-//W3C//DTD SVG 1.1//EN" "http://www.w3.org/Graphics/SVG/1.1/DTD/svg11.dtd">
<svg version="1.1" id="Layer_1" xmlns="http://www.w3.org/2000/svg" xmlns:xlink="http://www.w3.org/1999/xlink" x="0px" y="0px"
	 width="380.338px" height="100.455px" viewBox="0.176 11.551 380.338 100.455"
	 enable-background="new 0.176 11.551 380.338 100.455" xml:space="preserve">
<g>
	<g>
		<polyline points="82.959,22.073 62.035,17.659 67.518,11.551 88.441,15.964 82.959,22.073 		"/>
		<polygon points="89.598,42.399 82.959,22.073 88.441,15.964 95.081,36.291 		"/>
		<polyline points="83.022,51.559 62.099,47.146 67.581,41.037 88.505,45.45 83.022,51.559 		"/>
		<polygon points="89.662,71.887 83.022,51.559 88.505,45.45 95.144,65.778 		"/>
		<polyline points="83.022,91.678 62.099,87.264 67.581,81.157 88.505,85.57 83.022,91.678 		"/>
		<polygon points="89.662,112.006 83.022,91.678 88.505,85.57 95.144,105.898 		"/>
		<polyline points="21.099,29.716 0.176,25.303 5.659,19.196 26.582,23.61 21.099,29.716 		"/>
		<polygon points="27.738,50.043 21.099,29.716 26.582,23.61 33.22,43.935 		"/>
		<polyline points="53.585,25.519 32.662,21.106 38.145,14.997 59.068,19.411 53.585,25.519 		"/>
		<polygon points="60.225,45.847 53.585,25.519 59.068,19.411 65.708,39.739 		"/>
		<polygon points="121.633,50.084 135.961,50.084 135.961,85.723 145.423,85.723 145.423,50.084 159.749,50.084 159.749,42.526 
			121.633,42.526 		"/>
		<path d="M183.813,53.536c-3.85,0-7.924,2.004-10.512,5.086V42.526h-9.04v43.198h9.04V68.29c0-4.132,4.133-7.336,7.688-7.336
			c3.808,0,5.36,2.166,5.36,7.477v17.293h9.042V67.16C195.391,58.374,191.279,53.536,183.813,53.536L183.813,53.536z"/>
		<path d="M219.031,80.003c-5.189,0-8.679-4.001-8.679-9.949c0-5.949,3.489-9.947,8.679-9.947c5.147,0,8.607,3.998,8.607,9.947
			C227.638,76.002,224.178,80.003,219.031,80.003L219.031,80.003z M219.031,53.254c-10.02,0-17.576,7.221-17.576,16.799
			s7.557,16.801,17.576,16.801c9.979,0,17.504-7.223,17.504-16.801S229.01,53.254,219.031,53.254L219.031,53.254z"/>
		<path d="M264.69,71.817c0,4.132-4.134,7.337-7.689,7.337c-2.784,0-5.359-0.906-5.359-7.478V54.383H242.6v18.564
			c0,8.786,4.112,13.625,11.577,13.625c4.298,0,8.605-2.23,10.95-5.551l0.295,4.703h8.309V54.383h-9.041V71.817L264.69,71.817z"/>
		<path d="M297.371,60.46c4.857,0,8.253,3.946,8.253,9.594c0,5.649-3.396,9.595-8.253,9.595c-4.859,0-8.254-3.945-8.254-9.595
			C289.117,64.405,292.511,60.46,297.371,60.46L297.371,60.46z M305.832,58.493c-2.568-3.084-6.676-4.957-11.003-4.957
			c-8.411,0-14.754,7.1-14.754,16.517c0,9.417,6.343,16.519,14.754,16.519c4.046,0,7.863-1.588,10.442-4.294v0.832
			c0,8.9-5.525,10.229-8.818,10.229c-4.839,0-8.496-1.091-13.044-3.889l-0.65-0.4v7.294l0.216,0.122
			c3.964,2.22,9.31,3.653,13.619,3.653c8.082,0,17.717-3.099,17.717-17.859V54.383h-8.239L305.832,58.493L305.832,58.493z"/>
		<path d="M341.974,53.536c-3.851,0-7.924,2.004-10.511,5.086V42.526h-9.041v43.198h9.041V68.29c0-4.132,4.134-7.336,7.688-7.336
			c3.807,0,5.359,2.166,5.359,7.477v17.293h9.04V67.16C353.552,58.374,349.44,53.536,341.974,53.536L341.974,53.536z"/>
		<polygon points="374.091,54.383 374.091,46.055 365.051,46.055 365.051,54.383 358.628,54.383 358.628,60.601 365.051,60.601 
			365.051,85.723 374.091,85.723 374.091,60.601 380.513,60.601 380.513,54.383 		"/>
	</g>
</g>
</svg>
